<?xml version="1.0" standalone="no"?>
<!DOCTYPE svg PUBLIC "-//W3C//DTD SVG 1.1//EN" "http://www.w3.org/Graphics/SVG/1.1/DTD/svg11.dtd" >
<svg xmlns="http://www.w3.org/2000/svg">
<metadata>
This is a custom SVG webfont generated by Font Squirrel.
Copyright   :  Jakob Fischer  PizzaDude distribute freely
</metadata>
<defs>
<font id="webfontdCryGwlY" horiz-adv-x="1021" >
<font-face units-per-em="2048" ascent="1638" descent="-410" />
<missing-glyph horiz-adv-x="1024" />
<glyph unicode=" "  horiz-adv-x="1024" />
<glyph unicode="&#x09;" horiz-adv-x="1024" />
<glyph unicode="&#xa0;" horiz-adv-x="1024" />
<glyph unicode="!" horiz-adv-x="774" d="M193 1057q0 115 12 164l53 211q68 47 137 114q16 16 84 17q150 0 223 -31q115 -47 115 -174q0 -131 -106 -537q-115 -434 -185 -469q-29 -14 -69 -14q-131 0 -205 260q-59 209 -59 459zM242 -59q0 12 14 82q27 125 84 165q51 35 184 35q250 0 250 -260q0 -98 -71.5 -175 t-170.5 -77q-121 0 -155 13q-59 20 -101 104q-34 70 -34 113z" />
<glyph unicode="&#x22;" horiz-adv-x="987" d="M78 1393q0 16 58.5 79.5t76.5 69.5q27 8 90 8q86 0 146.5 -63.5t60.5 -149.5q0 -139 -51 -264q-66 -162 -185 -162q-37 0 -67 19q-39 23 -39 55q0 29 26.5 79t26.5 79t-71.5 127t-71.5 123zM514 1432q0 41 47 100t88 59q197 -39 285 -100q123 -86 123 -258 q0 -160 -88 -283q-96 -137 -250 -137q-68 0 -110 42t-42 110q0 63 35 151q49 121 53 146q-141 127 -141 170z" />
<glyph unicode="#" horiz-adv-x="1488" d="M90 924q0 158 170 157q49 0 135 -14q-23 156 -22 211q0 172 231 172l66 -12q12 -18 37 -178q20 -133 63 -134q84 0 84 91q0 16 -3 48.5t-3 49.5q0 147 82 201q63 43 219 43q127 0 127 -70q0 -41 -51 -136.5t-51 -129.5q0 -68 65 -68q31 0 106.5 27.5t106.5 27.5 q86 0 86 -88q0 -92 -55 -196q-14 -4 -123 -27q-88 -18 -111 -41q27 -63 92 -63q20 0 63.5 7t63.5 7l74 -35l2 -69q4 -106 -59 -160q-14 -12 -113 -53q-59 -25 -59 -78q0 -33 18.5 -95.5t18.5 -95.5q0 -57 -21 -104q-84 -39 -203 -39q-131 0 -163 82q-16 41 -17 194 q0 14 -10 103q-94 -10 -113 -15q-27 -6 -26 -26q0 -20 6 -62.5t6 -62.5q0 -129 -43 -173t-170 -44q-106 0 -139 57q-18 33 -21.5 138.5t-21.5 146.5q-172 -14 -174 -15q-49 0 -82 33t-33 82q0 96 53 127q27 14 120 20.5t130 26.5v8q0 33 -27 91q-63 4 -192 16 q-119 17 -119 117zM723 748q0 -55 49 -56q131 0 131 60q0 16 3 47.5t3 48.5q0 37 -47 74q-8 4 -16 4q-14 0 -47 -29q-39 -35 -51 -39q-25 -63 -25 -110z" />
<glyph unicode="$" horiz-adv-x="1208" d="M125 25l10 43l-6 4q-4 61 31 115.5t94 54.5q66 0 147 -17l146 -30q20 74 20 81q0 -4 -98 27q-283 86 -283 342q0 109 72 215q78 117 180 121q-2 29 -24.5 88t-22.5 92q0 61 66 101q55 35 121 34q29 0 90 -24q33 -55 26 -228q127 18 176 19q211 0 211 -184q0 -84 -14 -138 l-31 -18l-237 -16q10 -90 8 -129l223 -25q147 -27 191 -90q49 -76 49 -268q0 -242 -459 -355q-6 -88 -10 -108q-12 -55 -43 -99l-164 45q-96 41 -96 121q0 51 22 119q-49 0 -142 -37t-142 -37q-74 0 -82 86q-29 38 -29 95zM418 639q0 -31 59 -49q45 -14 84 -15q2 10 0 54 q-2 45 -6 55q-8 29 -37 29q-31 0 -65.5 -22.5t-34.5 -51.5zM784 258q0 -12 2 -84q141 45 142 66q0 29 -35 51t-66 22q-37 0 -43 -55z" />
<glyph unicode="'" horiz-adv-x="692" d="M174 1477q47 139 266 139q301 0 301 -256q0 -143 -106.5 -253t-247.5 -110q-98 0 -98 50q0 39 43 113.5t43 107.5q0 31 -43 49q-74 31 -88 41q-52 39 -70 119z" />
<glyph unicode="(" horiz-adv-x="915" d="M94 461q0 449 340 801q29 29 129 104q86 63 117 111l47 18q82 0 160 -41q94 -47 94 -121q0 -154 -135 -270l-250 -176q-135 -100 -135 -240q0 -102 123 -203l209 -141q143 -109 143 -182q0 -102 -113.5 -198.5t-218.5 -96.5q-240 0 -383 205q-127 180 -127 430z" />
<glyph unicode=")" horiz-adv-x="894" d="M61 1196q0 80 89 137q78 51 161 51l56 -18q16 -27 120 -96q211 -141 340 -412q125 -258 125 -522q0 -252 -135 -428q-147 -195 -391 -195q-96 0 -205.5 99.5t-109.5 195.5q0 78 120 164l228 162q123 111 123 241q0 106 -136 205q-47 35 -249 174q-136 113 -136 242z" />
<glyph unicode="*" horiz-adv-x="925" d="M375 602q0 106 65 150q12 8 158 63l51 19q12 0 62 -19l155 -57q61 -39 62 -150q0 -84 -49.5 -149.5t-130.5 -65.5q-121 0 -232 45q-141 58 -141 164z" />
<glyph unicode="+" horiz-adv-x="1224" d="M172 602q0 84 32 123t111 39q23 0 69 -2t69 -2q39 0 41 4q6 25 2 59q-8 57 -9 60q0 33 -11 96t-11 96q0 86 104 135q82 39 181 39q133 0 133 -137q0 -39 -11.5 -118t-11.5 -117q0 -96 66 -97q18 0 57 6.5t57 6.5q109 0 181.5 -67t72.5 -175q0 -68 -86 -88 q-23 -4 -157 -17q-84 -6 -84 -38q0 -39 49 -135.5t49 -151.5l-6 -47q-70 -63 -187 -113q-123 -51 -210 -51q-92 12 -115 129l-17 209q-8 104 -65 102l-103 -4q-190 0 -190 256z" />
<glyph unicode="," horiz-adv-x="743" d="M158 102q49 141 264 142q303 0 303 -258q0 -143 -107.5 -253t-248.5 -110q-96 0 -97 51q0 39 42 113t42 107t-41 49q-68 29 -88 43q-53 38 -69 116z" />
<glyph unicode="-" d="M178 637q0 59 25 104q16 31 252 90q225 57 284 58q129 0 208 -85t79 -214q0 -88 -51 -143.5t-139 -55.5q-27 0 -80.5 9.5t-79.5 9.5q-49 0 -144.5 -22.5t-144.5 -22.5q-154 0 -166 98q-14 14 -28 84q-15 61 -15 90z" />
<glyph unicode="." horiz-adv-x="704" d="M203 -129q0 109 65 152q10 6 158 63q47 18 53 18q4 0 58 -19l157 -56q61 -39 62 -150q0 -84 -47 -147q-51 -70 -134 -70q-123 0 -231 45q-141 60 -141 164z" />
<glyph unicode="0" horiz-adv-x="1486" d="M152 340q0 203 226 420t429 217q283 0 487 -154q223 -168 224 -442q0 -211 -111 -346q-119 -147 -326 -148q-301 0 -565 90q-364 125 -364 363zM778 410q0 -55 38 -104.5t91 -49.5q178 0 178 154q0 53 -30 110q-35 66 -84 66q-12 0 -30.5 -9.5t-25.5 -11.5q-16 0 -51 -6 q-39 -16 -62.5 -60t-23.5 -89z" />
<glyph unicode="1" horiz-adv-x="1015" d="M70 612q0 137 313 252q260 96 434 97q182 0 182 -240v-262q0 -289 -84 -404q-102 -141 -385 -141q-61 0 -61 147v27q2 23 2 37v68q0 139 -37 194q-12 18 -37 19q-20 0 -73.5 -20.5t-77.5 -20.5q-47 0 -100.5 37.5t-53.5 82.5q0 10 4 21q-26 53 -26 106z" />
<glyph unicode="2" horiz-adv-x="1355" d="M137 924q0 170 281 256q197 59 424 59q166 0 286 -98q129 -104 129 -267q0 -70 -182 -192q-199 -133 -225 -217q236 84 340 84q100 0 164 -103q55 -88 55 -194q0 -78 -410 -244q-391 -158 -510 -158q-137 0 -232 93.5t-95 228.5q0 182 102 293q63 68 238.5 160t242.5 157 q-25 80 -100 80q-61 0 -177 -54t-179 -54t-107.5 52t-44.5 118z" />
<glyph unicode="3" horiz-adv-x="1210" d="M86 164q0 84 96.5 177t179.5 93q23 0 118 -89t118 -89q72 0 144.5 61.5t72.5 133.5q0 141 -57 155q-16 4 -33 4q-49 0 -145.5 -49t-145.5 -51q-92 61 -92 135q0 51 70 107q78 61 86 98l49 57q-160 0 -211 2q-152 6 -197 43l-2 74q-2 111 88 236q49 20 131 20 q129 0 312 -33q246 -45 245 -108q0 -47 -32 -111l-52 -106q205 -66 318 -244q106 -168 106 -391q0 -180 -215 -352q-203 -164 -389 -164q-115 0 -196 34l-177 95q-190 178 -190 262z" />
<glyph unicode="4" horiz-adv-x="1327" d="M61 494q0 176 48 378q55 233 141 351q49 35 141 34q137 0 154 -245q2 -51 8 -156q86 -6 121 125q55 205 80 248q82 135 276 135q68 0 103 -25l12 -82q0 -47 -26.5 -140t-26.5 -140q0 -88 61 -88q27 0 80 16.5t80 16.5q41 0 84 -41q-16 -262 -56 -332q-10 -20 -88 -47 q-86 -31 -106 -49q-55 -47 -55 -144q0 -59 15 -176t15 -176q0 -203 -301 -203q-147 0 -147 377q0 43 5 128t5 128l-22 47q-276 -158 -396 -158l-121 99q-84 76 -84 119z" />
<glyph unicode="5" horiz-adv-x="1263" d="M49 727q0 246 31 360q25 88 393 183q328 84 473 84q61 0 94 -76q27 -61 23 -131l-4 -90q-47 -23 -172 -33t-176 -33q-86 -39 -86 -129l14 -51q35 6 166 49q102 33 168 33q147 0 249.5 -101.5t102.5 -246.5q0 -236 -156 -400q-158 -170 -391 -170q-141 0 -325 80 q-219 94 -220 215q0 49 80 108.5t133 59.5q18 0 69.5 -24.5t76.5 -24.5q55 0 55 62q0 41 -25.5 77.5t-64.5 36.5q-59 0 -172 -31.5t-170 -31.5q-166 0 -166 225z" />
<glyph unicode="6" horiz-adv-x="1245" d="M94 483q0 258 176 553q199 332 437 332q61 0 127.5 -58.5t66.5 -117.5q0 -90 -90 -143l-170 -76q-92 -47 -92 -135q274 123 414 123q84 0 172 -72q76 -63 116 -150q45 -180 45 -250q0 -233 -194 -393q-182 -150 -422 -149q-176 0 -350 100q-201 117 -199 279 q-37 48 -37 157zM504 563q0 -72 33 -114q18 -25 92 -74q37 -25 45 -25q47 0 96 48t49 96q0 57 -47 122.5t-102 65.5q-109 0 -162 -53q0 -10 -2 -33t-2 -33z" />
<glyph unicode="7" horiz-adv-x="1075" d="M102 774q0 68 11 158q2 4 59 100q133 225 637 225q344 0 344 -180q0 -94 -82 -217l-153 -221q-82 -125 -82 -242q0 -88 65.5 -257t65.5 -251q0 -80 -84 -133q-74 -47 -158 -47q-139 0 -287 76q-172 88 -172 213q0 137 107 311l207 320q115 182 127 315l-31 23 q-96 -2 -134 -43t-38 -136v-20q2 -20 2 -33v-57q0 -55 -88 -80q-59 -18 -131 -18q-185 -1 -185 194z" />
<glyph unicode="8" horiz-adv-x="1320" d="M78 117q0 223 96 372q43 68 256 289q-2 35 -28.5 103.5t-26.5 105.5q0 125 89 206t216 81q205 0 307 -43q156 -66 156 -240q0 -43 -14.5 -129t-14.5 -129q0 -57 70 -141l129 -154q72 -86 71 -196q0 -223 -247 -365q-211 -121 -449 -121q-223 0 -389 72q-221 96 -221 289z M750 874q0 -45 14 -92q18 -63 53 -63t57 53q18 43 19 84q0 47 -23 88q-27 51 -69 51q-51 0 -51 -121zM774 254q0 -135 109 -135q68 0 141 33q92 41 92 94q0 63 -68.5 147t-129.5 84q-14 0 -39 -10q-31 -10 -39 -12q-66 -70 -66 -201z" />
<glyph unicode="9" horiz-adv-x="1265" d="M154 698q0 485 424 486q289 0 497 -142q238 -162 238 -438q0 -330 -214 -532.5t-546 -202.5q-117 0 -244 59q-150 70 -149 174l26 91q18 8 70 57q37 35 102 35q35 0 99.5 -22.5t99.5 -22.5q47 0 78 32l4 50q-33 53 -166 75q-158 27 -213 62q-106 67 -106 239zM647 696 q0 -92 62 -92q82 0 82 74q0 119 -86 119q-58 -1 -58 -101z" />
<glyph unicode=":" horiz-adv-x="720" d="M164 768q0 109 65 152q10 6 160 63q43 16 51 18q4 0 58 -19l157 -56q61 -39 62 -150q0 -86 -45 -149q-51 -68 -135 -68q-123 0 -232 45q-141 60 -141 164zM223 289q0 45 49.5 124t89.5 74q84 -10 134 -10q82 0 149 -33q86 -41 86 -112q0 -113 -104 -182q-92 -61 -211 -62 q-193 0 -193 201z" />
<glyph unicode=";" horiz-adv-x="663" d="M117 754q0 72 65 131q55 51 133 73q23 2 64 15q39 20 35 20q102 0 170 -92q61 -82 61 -188q0 -90 -80 -111q-31 -8 -155 -8q-229 0 -267 92q-26 15 -26 68zM143 379q51 139 267 139q301 0 301 -258q0 -143 -106.5 -251.5t-248.5 -108.5q-98 0 -98 49q0 39 43 112.5 t43 106.5q0 31 -43 49q-63 27 -86 43q-54 39 -72 119z" />
<glyph unicode="&#x3c;" horiz-adv-x="944" d="M55 420q0 119 197 401q193 276 307 338q109 59 205 60q84 0 151 -43q78 -49 78 -129q0 -78 -135 -175l-258 -178q-145 -104 -162 -209q47 -74 203 -151q213 -106 250 -133q121 -90 121 -217q0 -59 -49.5 -95t-110.5 -36q-178 0 -479 194q-318 205 -318 373z" />
<glyph unicode="=" horiz-adv-x="1206" d="M176 727q0 109 62 139q342 172 598 172q102 0 165 -49q72 -53 72 -151q0 -127 -145 -127q-37 0 -113 11t-113 11q-94 0 -234 -80t-200 -80q-25 0 -55.5 21.5t-30.5 44.5q0 6 4 4q-10 45 -10 84zM199 342q0 14 10 44t6 52q70 61 229 62q68 0 200 -32t200 -32 q51 0 145 54.5t139 54.5q49 0 87 -36t38 -85q0 -162 -249 -248q-180 -61 -388 -61q-417 0 -417 227z" />
<glyph unicode="&#x3e;" horiz-adv-x="962" d="M53 -4q0 102 150 215q74 55 276 166q150 82 150 108q0 47 -127 170q-119 115 -174 144q-14 23 -86 63q-78 45 -111 76q-55 53 -55 123t78 117q66 41 141 41q162 0 303 -129q80 -72 215 -265q197 -279 197 -395q0 -184 -308 -387q-289 -190 -485 -190q-70 0 -117 37.5 t-47 105.5z" />
<glyph unicode="@" horiz-adv-x="1257" d="M133 657q0 338 168 576q188 268 512 268q252 0 375 -166q111 -147 110 -407q0 -358 -198 -359q-219 0 -316 133q-63 -137 -163 -137q-80 0 -132 37q-57 41 -57 119q0 125 94.5 231.5t218.5 118.5q27 2 97 -65q92 -88 123 -205h57q33 43 33 102q0 96 -60 197 q-18 31 -123 168l-90 4q-143 6 -307 -207q-156 -203 -156 -356q0 -133 94.5 -235.5t227.5 -102.5q113 0 193 43q43 23 98 75q45 43 76 43q72 0 131 -68.5t59 -139.5q0 -156 -148.5 -302.5t-304.5 -146.5q-285 0 -458 258q-154 227 -154 524zM594 748q0 -49 47 -50h18 q12 14 13 47q0 72 -39 111q-39 -71 -39 -108z" />
<glyph unicode="A" horiz-adv-x="1370" d="M47 -117q47 303 146 635q129 438 260 561q16 78 217 140q164 49 276 49q127 0 127 -162q0 -43 -10 -129t-10 -129q0 -104 102 -250l195 -260q104 -141 104 -201q0 -96 -151 -188q-135 -82 -242 -82q-51 82 -172 233q-68 12 -84 13q-113 0 -156 -109q-66 -162 -102 -201 q-106 -109 -379 -108q-59 0 -94 67q-27 55 -27 121zM598 362q0 -17 12 -16h2q135 10 219 96q-2 20 -8 58q-41 117 -100 116l-8 -2q-18 -2 -53 -86q-64 -152 -64 -166z" />
<glyph unicode="B" horiz-adv-x="1179" d="M104 225q0 117 17 207l43 238l-8 2q14 92 14 184q0 178 72 375q90 248 235 248q260 0 449 -33q332 -57 331 -205q0 -197 -90 -323q-41 -57 -163 -158q-88 -72 -89 -142q0 -23 128 -129t128 -167t-55 -136l-94 -118v-9q-139 -164 -236 -235q-154 -117 -303 -117 q-190 0 -293 172q-86 143 -86 346zM543 274q0 -41 16 -63q1 -1 4 -1q19 0 106 37q99 42 99 77q0 20 -24.5 71t-41 61.5t-40.5 10.5q-47 0 -103 -49q-15 -146 -16 -146v2zM549 817q0 -59 31 -115q41 0 120 105q53 70 54 94q0 27 -19.5 49.5t-46.5 22.5q-14 0 -56 -17.5 t-50 -27.5q-33 -33 -33 -111z" />
<glyph unicode="C" horiz-adv-x="1269" d="M39 244q0 784 434 872q242 49 275 49q188 0 356 -67q217 -88 217 -248q0 -229 -37 -324q-63 -160 -258 -159q-211 0 -260 22q-18 8 -33 74q-14 74 -112 143q-12 8 -23 8q-47 0 -47 -229q0 -131 61 -180l109 -4q4 0 9 -1q36 0 98 14q71 15 106 15q147 0 201 -36 q-4 -29 -5 -64q0 -37 8.5 -110.5t8.5 -110.5q0 -168 -168 -227q-102 -35 -313 -35t-419 193.5t-208 404.5z" />
<glyph unicode="D" horiz-adv-x="1374" d="M195 1200q74 125 178 125q260 0 575 -108q385 -133 436 -328q27 -100 27 -238q0 -291 -113 -475q-104 -168 -362 -334q-317 -203 -533 -202q-68 0 -116.5 53t-71.5 708zM563 627q0 -55 62.5 -239.5t97.5 -233.5q82 25 154 63q106 57 106 111q0 94 -35 180 q-39 100 -109.5 136t-195.5 36q-16 0 -48 -19.5t-32 -33.5z" />
<glyph unicode="E" horiz-adv-x="1275" d="M125 152q0 186 58.5 554.5t58.5 555.5q0 82 -9 159q70 141 238 142q569 0 569 -146l-12 -65q-55 -57 -170 -92q-180 -53 -188 -60q-8 -47 -8 -84l28 -57h101l6 6q156 14 329 14q117 0 160 -16q80 -31 80 -125q0 -23 4 -69t4 -68q0 -90 -59 -127q-76 -47 -338 -58 q-250 -8 -315 -79q-10 -10 -11 -31q0 -23 14.5 -48.5t36 -28.5t43.5 -3q51 0 149.5 23.5t149.5 23.5q74 0 95 -55q12 -33 12 -117q0 -100 -68 -168q-27 -27 -393 -138.5t-426 -111.5q-139 1 -139 269z" />
<glyph unicode="F" horiz-adv-x="1257" d="M225 1483l37 92q74 33 178 33q258 0 432 -66q246 -92 246 -299q0 -156 -39 -192q-10 -10 -98 -26.5t-139 -76.5q-12 -14 -13 -49q0 -45 21 -113q23 -76 53.5 -97t81.5 -21q35 0 105.5 14t107.5 14q53 0 96 -34l17 -70q0 -117 -60 -156q-31 -20 -134 -38.5t-150 -63.5 q4 -37 32 -131q25 -82 25 -131q0 -109 -233 -269q-221 -152 -340 -151l-68 12q-45 94 -92 721q-43 561 -43 782q0 53 -11.5 158t-11.5 158z" />
<glyph unicode="G" horiz-adv-x="1386" d="M70 997q0 266 73 361q98 125 377 196q223 57 436 58q209 0 209 -406q0 -76 -116 -123q-94 -39 -185 -39q-43 0 -69 56q-33 66 -56 82q-100 -23 -155 -129q-35 -68 -64 -201q33 -66 113 -131l133 -109q33 27 33 86q0 33 -25.5 106t-25.5 105q0 25 10 39q485 113 588 113 l73 -23q33 -78 33 -184q-31 -8 -90 -27q-72 -20 -72 -39q0 -72 57.5 -204.5t57.5 -204.5q0 -121 -399 -322q-375 -188 -525 -188q-92 0 -168 111q-47 70 -110 217q-57 131 -80 151q-47 369 -47 451q0 41 2 80q-8 81 -8 118z" />
<glyph unicode="H" horiz-adv-x="1288" d="M45 -139q0 147 70.5 433t70.5 433q0 135 37 336l62 332q102 115 274 114q127 0 166 -135q18 -66 18 -239q0 -43 13 -86q17 -5 51 -5h24q70 4 84 27l56 156q31 82 125 82q115 0 161 -19q78 -31 78 -127q0 -326 -47 -741q-68 -596 -188 -596q-176 0 -232 72q-25 33 -47 180 t-69 217q-6 10 -17 10q-18 0 -98 -94q0 -61 25.5 -182t25.5 -183q0 -74 -29 -116q-154 -57 -419 -58q-195 1 -195 189z" />
<glyph unicode="I" horiz-adv-x="956" d="M193 442l2 179q1 4 1 21.5t-1 49.5q0 6 -1 12q0 39 13 52q362 109 450 108q141 0 185 -43q31 -33 73 -192q47 -176 48 -248v-10l-2 -37q-86 -72 -324 -157t-350 -85q-20 0 -33 2q-57 10 -59 164zM225 1135q0 47 18.5 139t18.5 139q0 59 80 98q68 31 135 31q63 0 236 -26 q137 -20 147 -25q84 -27 84 -100v-150q0 -305 -264 -305q-106 0 -244 31q-182 41 -203 102q-8 25 -8 66z" />
<glyph unicode="J" horiz-adv-x="1271" d="M39 -82q0 59 33 96q4 143 100 199q74 45 227 45l60 -12q68 -182 139 -183q49 0 106.5 46.5t57.5 95.5q0 106 -19 151l-127 443q-23 12 -45 88q-20 68 -20 102q0 39 90 58q61 12 127 12q332 0 418 -88q31 -31 100 -365q68 -324 68 -399q0 -190 -92 -369 q-111 -213 -281 -213h-211q-135 0 -379 58q-276 66 -338 135q-14 88 -14 100zM438 1380v70q12 35 13 68q0 10 -2 26v19q0 29 90 43q53 4 108 10q12 1 31 1q62 0 194 -15q180 -20 205 -43q57 -51 58 -185q0 -113 -33 -162q-41 -59 -150 -59q-29 0 -86 6t-86 6 q-39 0 -114.5 -9t-114.5 -9q-23 0 -47 12q-66 100 -66 221z" />
<glyph unicode="K" horiz-adv-x="1560" d="M111 506q2 190 16 364q23 268 66 310q236 162 292 161q45 0 78 -73q16 -35 41 -148q23 -104 39 -129q41 8 96 107q72 127 129 176q109 92 283 92q47 0 143 -25l11 -41q0 -51 -54.5 -139t-54.5 -129q0 -45 232.5 -259t232.5 -275q0 -43 -19 -99q-119 -233 -215 -233 q-92 0 -276 100q-211 115 -285 131q27 -139 27 -194q0 -143 -221 -252q-190 -94 -348 -94q-106 0 -150 131l-49 215q4 4 4 28q0 45 -9 136.5t-9 138.5z" />
<glyph unicode="L" horiz-adv-x="1126" d="M76 449q12 129 41 161l-8 2l69 269q45 178 88 262l84 172q147 123 217 123q111 0 189 -43q98 -53 98 -154q0 -113 -66.5 -331t-66.5 -330l14 -64q59 -49 103 -49q23 0 49 10l178 -65q137 -53 137 -90q0 -211 -178 -363q-170 -143 -385 -143q-217 0 -387 121 q-182 128 -182 332q0 90 6 180z" />
<glyph unicode="M" horiz-adv-x="1970" d="M43 465q0 401 121 797l-8 4q12 66 141 237q283 35 391 35q197 0 299 -152q37 -55 139 -323q2 -29 9 -29q10 16 71 135q199 383 518 383q80 0 142.5 -71.5t62.5 -153.5q0 -23 -6 -43q27 -55 35 -141l8 -146l6 -6q35 -358 35 -551q-207 -154 -311 -153q-55 0 -140.5 94 t-115.5 94q-16 0 -29 -8q-80 -53 -106 -215q-14 -102 -48 -250q-49 -111 -187 -111h-15l-101 5q-92 90 -135 309q-45 238 -104 325l-68 13q-23 -39 -38 -143.5t-31 -141.5q-33 -72 -107 -72q-160 0 -278 60q-150 74 -150 219z" />
<glyph unicode="N" horiz-adv-x="1849" d="M45 -35v350q6 201 45 344q6 340 109 402l73 14q297 0 680 -270q133 -94 138 -94q29 0 90 88q88 129 123 164q88 90 180 90q88 0 249.5 -138.5t161.5 -224.5q0 -80 -156.5 -528.5t-189.5 -462.5q-57 -25 -162 -25q-221 0 -366 168q-63 72 -191 320q-94 182 -182 200 q2 -74 31 -223t29 -229q0 -186 -136 -186q-180 0 -319 43q-207 63 -207 198z" />
<glyph unicode="O" horiz-adv-x="1591" d="M53 958q4 121 146 254q135 133 258 148q33 4 188 33q123 23 189 22q780 0 780 -487q0 -326 -195 -553q-203 -242 -524 -242q-342 0 -594 240q-248 237 -248 555q-1 15 0 30zM471 813q0 -82 129 -160q117 -74 205 -73q72 0 143.5 54t71.5 124q0 61 -143 110 q-119 41 -199 41h-74q-66 -2 -72 -2q-25 -6 -59 -37z" />
<glyph unicode="P" horiz-adv-x="1437" d="M49 1139l19 80q133 137 303 137q23 0 75 -2q24 -1 42.5 -1t31.5 1q80 -113 121 -113q66 0 196 29.5t195 29.5q233 0 346 -79q133 -92 133 -318q0 -311 -165 -440q-68 -53 -310 -123q-166 -49 -166 -164q0 -31 13.5 -96.5t11.5 -99.5l-4 -89q-90 -76 -279 -75 q-174 0 -280 286q-154 455 -221 717q-62 211 -62 320zM586 610q0 -53 24 -110q70 2 189 39q143 45 143 90l-10 49q-20 98 -35 123q-31 49 -111 49q-82 0 -124 -29q-20 -14 -48 -96t-28 -115z" />
<glyph unicode="Q" horiz-adv-x="1437" d="M53 774q0 252 191 494q199 256 444 264q336 35 404 35q137 0 237 -62q119 -74 119 -200q0 -100 -62 -215q-18 -35 -116 -179q-63 -92 -68 -141q29 -10 62 -12q23 -2 63 0q49 4 64 4q18 0 53 -15.5t35 -29.5q0 -514 -260 -514q-70 0 -194 92t-157 92l-143 -88 q-145 -88 -248 -88q-215 0 -327 182q-97 154 -97 381zM422 815q0 -96 35 -110l96 -27q-4 41 -10 96q-12 41 -43 129q31 102 88 103q31 0 88 -29q66 -33 90 -37q59 55 59 199q0 109 -63 108q-16 0 -57 -24q-283 -168 -283 -408z" />
<glyph unicode="R" horiz-adv-x="1685" d="M100 907q86 162 353 228q113 29 438 55q266 23 326 22q223 0 331 -73q133 -88 133 -301q0 -135 -204 -353q4 -27 108.5 -97.5t104.5 -131.5q0 -70 -76 -147q-29 -31 -154 -129q-94 -76 -127 -127l-78 -9q-59 0 -260.5 126t-281.5 126l-43 -24q-2 -31 -2 -170 q0 -86 -95 -138q-80 -45 -172 -45q-145 0 -198 156q-33 94 -33 277q0 274 -70 755zM594 563q0 -72 16 -149q25 -113 70 -113q74 0 179.5 110.5t105.5 184.5q0 35 -50 55q-39 16 -79 17q-242 -1 -242 -105z" />
<glyph unicode="S" horiz-adv-x="1464" d="M78 381q0 111 43 194q53 104 153 105q129 0 172 -25q18 -10 32 -56t52 -69q207 72 207 177q-238 29 -393 98q-236 104 -235 280q31 184 385 326q299 119 530 119h184q217 0 213 -152l-2 -61q-20 -18 -209 -68q-156 -41 -149 -106q55 -66 186 -109q160 -53 197 -82 q88 -66 88 -207q0 -307 -354 -452q-258 -106 -619 -107q-481 0 -481 195z" />
<glyph unicode="T" horiz-adv-x="1400" d="M49 897q0 154 172 203l291 53q88 29 84 29q664 0 836 -66l43 -55q-4 -188 -74 -248q-12 -10 -125 -49q-68 -23 -68 -123q0 -57 16.5 -172t16.5 -172v-147q0 -127 -55.5 -186.5t-181.5 -59.5q-133 0 -322 104q-209 117 -209 238q0 55 50 184t50 199q0 53 -28 86l-66 6 q-49 0 -141 -27.5t-141 -27.5q-72 0 -113 84q-35 67 -35 147z" />
<glyph unicode="U" horiz-adv-x="1439" d="M94 631q0 145 68 352q96 293 106 344q16 12 70 80q39 51 84 51q139 0 297 -47q205 -61 205 -166q0 -61 -29 -187t-27 -194l4 -112l54 -9q174 0 174 80q0 53 -36 153.5t-36 153.5q0 66 42 118t106 52q297 0 297 -202q0 -217 -56 -502q-70 -358 -174 -446q-68 -57 -215 -58 q-59 0 -314 46t-313 67q-172 63 -239.5 154.5t-67.5 271.5z" />
<glyph unicode="V" horiz-adv-x="1507" d="M57 858q0 86 88 188.5t172 102.5t193 -191q125 -217 201 -256q94 113 131 306q35 178 98 231q111 92 438 92q70 0 162 -31q49 -66 49 -174q0 -168 -106 -401q-137 -303 -160 -387q-12 -47 -12 -109q0 -39 7 -115.5t7 -115.5q0 -98 -231 -197q-199 -84 -322 -84 q-86 0 -246 213q-152 203 -164 301q-305 566 -305 627z" />
<glyph unicode="W" horiz-adv-x="1794" d="M37 1090q0 33 19.5 90t21.5 84q57 23 127 22q80 0 125 -147l45 -215l59 -50q61 53 84 186.5t76 172.5q104 74 412 74q123 0 188 -166q8 -18 94 -264l51 -11q31 41 66 158q37 131 59 172q47 84 121 84q268 0 268 -131q0 -133 -96 -578q-102 -471 -158 -524 q-102 -96 -428 -96q-113 0 -161 67q-20 29 -56 150q-29 102 -82 151q-6 0 -11 1q-84 0 -132 -82l-90 -164q-61 -90 -156 -90q-383 0 -383 467q0 106 -31.5 319.5t-31.5 319.5z" />
<glyph unicode="X" horiz-adv-x="1640" d="M92 1081q0 82 170 253t250 171q61 0 102 -123q74 -217 86 -241q72 -143 203 -185q88 72 141 230q57 170 103 219q88 98 293 98q49 0 79.5 -42t30.5 -93q0 -49 -107.5 -203.5t-107.5 -228.5q0 -23 111 -90q147 -92 203 -135q109 -88 108 -164q0 -109 -154.5 -281 t-261.5 -172q-76 0 -187.5 117t-141.5 117q-61 0 -117 -105l-104 -196q-76 -106 -183 -107q-111 0 -301 139q-197 143 -196 248q0 63 82 115l155 90q82 61 82 139q0 115 -88 189l-164 102q-86 57 -86 139z" />
<glyph unicode="Y" horiz-adv-x="1394" d="M68 1309q0 111 90 186q84 74 196 74q113 0 156 -109l45 -217q29 -129 104 -160q37 63 79 207t75 207q59 111 127 111q131 0 340 -166q215 -172 215 -299q0 -72 -133 -152l-248 -139q-135 -78 -135 -123q0 -88 159.5 -282.5t159.5 -247.5q0 -133 -311 -246 q-264 -96 -430 -96q-55 0 -207 22q-68 104 -67 254q0 98 61.5 287.5t61.5 288.5q0 80 -89 184l-161 188q-88 113 -88 228z" />
<glyph unicode="Z" horiz-adv-x="1433" d="M45 59q0 207 158 392q88 102 291 249q158 115 157 154q0 59 -47 129q-180 0 -205 -61q-4 -35 -16 -106t-59 -71q-121 0 -158 23q-51 31 -51 145q0 121 6 168q14 111 96 174q63 47 186 74l211 41q365 78 482 78q158 0 264 -217q90 -184 90 -361q0 -57 -182 -165l-338 -199 q-182 -113 -182 -180q0 -37 118 -72q98 -29 154 -29q41 0 41 31q0 12 -7 39t-7 39q0 205 170 205q94 0 120 -88l39 -162q55 -205 56 -277q0 -174 -426 -174q-371 0 -549 21q-412 46 -412 200z" />
<glyph unicode="[" horiz-adv-x="811" d="M74 483q0 827 153 942q41 31 181 43q66 6 198 17q53 2 148 -19q115 -25 114 -63q0 -68 -71 -309l-244 -54q-131 -47 -131 -182q0 -365 65 -575q35 0 103.5 8t103.5 8q76 0 125 -66.5t49 -146.5q0 -68 -250 -205q-240 -131 -323 -131q-115 0 -178 318q-43 218 -43 415z " />
<glyph unicode="]" horiz-adv-x="878" d="M76 1403q0 35 80 67q72 29 110 29l232 -20q170 -20 219 -54q152 -100 151 -831q0 -260 -32 -477q-55 -367 -183 -367q-88 0 -325 129q-250 135 -250 207q0 82 53 149.5t133 67.5q31 0 90.5 -10t89.5 -10h13q70 213 69 573q0 156 -217 205q-53 10 -162 33q-71 241 -71 309 z" />
<glyph unicode="a" horiz-adv-x="1370" d="M47 -117q47 303 146 635q129 438 260 561q16 78 217 140q164 49 276 49q127 0 127 -162q0 -43 -10 -129t-10 -129q0 -104 102 -250l195 -260q104 -141 104 -201q0 -96 -151 -188q-135 -82 -242 -82q-51 82 -172 233q-68 12 -84 13q-113 0 -156 -109q-66 -162 -102 -201 q-106 -109 -379 -108q-59 0 -94 67q-27 55 -27 121zM598 362q0 -17 12 -16h2q135 10 219 96q-2 20 -8 58q-41 117 -100 116l-8 -2q-18 -2 -53 -86q-64 -152 -64 -166z" />
<glyph unicode="b" horiz-adv-x="1179" d="M104 225q0 117 17 207l43 238l-8 2q14 92 14 184q0 178 72 375q90 248 235 248q260 0 449 -33q332 -57 331 -205q0 -197 -90 -323q-41 -57 -163 -158q-88 -72 -89 -142q0 -23 128 -129t128 -167t-55 -136l-94 -118v-9q-139 -164 -236 -235q-154 -117 -303 -117 q-190 0 -293 172q-86 143 -86 346zM543 274q0 -41 16 -63q1 -1 4 -1q19 0 106 37q99 42 99 77q0 20 -24.5 71t-41 61.5t-40.5 10.5q-47 0 -103 -49q-15 -146 -16 -146v2zM549 817q0 -59 31 -115q41 0 120 105q53 70 54 94q0 27 -19.5 49.5t-46.5 22.5q-14 0 -56 -17.5 t-50 -27.5q-33 -33 -33 -111z" />
<glyph unicode="c" horiz-adv-x="1269" d="M39 244q0 784 434 872q242 49 275 49q188 0 356 -67q217 -88 217 -248q0 -229 -37 -324q-63 -160 -258 -159q-211 0 -260 22q-18 8 -33 74q-14 74 -112 143q-12 8 -23 8q-47 0 -47 -229q0 -131 61 -180l109 -4q4 0 9 -1q36 0 98 14q71 15 106 15q147 0 201 -36 q-4 -29 -5 -64q0 -37 8.5 -110.5t8.5 -110.5q0 -168 -168 -227q-102 -35 -313 -35t-419 193.5t-208 404.5z" />
<glyph unicode="d" horiz-adv-x="1374" d="M195 1200q74 125 178 125q260 0 575 -108q385 -133 436 -328q27 -100 27 -238q0 -291 -113 -475q-104 -168 -362 -334q-317 -203 -533 -202q-68 0 -116.5 53t-71.5 708zM563 627q0 -55 62.5 -239.5t97.5 -233.5q82 25 154 63q106 57 106 111q0 94 -35 180 q-39 100 -109.5 136t-195.5 36q-16 0 -48 -19.5t-32 -33.5z" />
<glyph unicode="e" horiz-adv-x="1275" d="M125 152q0 186 58.5 554.5t58.5 555.5q0 82 -9 159q70 141 238 142q569 0 569 -146l-12 -65q-55 -57 -170 -92q-180 -53 -188 -60q-8 -47 -8 -84l28 -57h101l6 6q156 14 329 14q117 0 160 -16q80 -31 80 -125q0 -23 4 -69t4 -68q0 -90 -59 -127q-76 -47 -338 -58 q-250 -8 -315 -79q-10 -10 -11 -31q0 -23 14.5 -48.5t36 -28.5t43.5 -3q51 0 149.5 23.5t149.5 23.5q74 0 95 -55q12 -33 12 -117q0 -100 -68 -168q-27 -27 -393 -138.5t-426 -111.5q-139 1 -139 269z" />
<glyph unicode="f" horiz-adv-x="1257" d="M225 1483l37 92q74 33 178 33q258 0 432 -66q246 -92 246 -299q0 -156 -39 -192q-10 -10 -98 -26.5t-139 -76.5q-12 -14 -13 -49q0 -45 21 -113q23 -76 53.5 -97t81.5 -21q35 0 105.5 14t107.5 14q53 0 96 -34l17 -70q0 -117 -60 -156q-31 -20 -134 -38.5t-150 -63.5 q4 -37 32 -131q25 -82 25 -131q0 -109 -233 -269q-221 -152 -340 -151l-68 12q-45 94 -92 721q-43 561 -43 782q0 53 -11.5 158t-11.5 158z" />
<glyph unicode="g" horiz-adv-x="1386" d="M70 997q0 266 73 361q98 125 377 196q223 57 436 58q209 0 209 -406q0 -76 -116 -123q-94 -39 -185 -39q-43 0 -69 56q-33 66 -56 82q-100 -23 -155 -129q-35 -68 -64 -201q33 -66 113 -131l133 -109q33 27 33 86q0 33 -25.5 106t-25.5 105q0 25 10 39q485 113 588 113 l73 -23q33 -78 33 -184q-31 -8 -90 -27q-72 -20 -72 -39q0 -72 57.5 -204.5t57.5 -204.5q0 -121 -399 -322q-375 -188 -525 -188q-92 0 -168 111q-47 70 -110 217q-57 131 -80 151q-47 369 -47 451q0 41 2 80q-8 81 -8 118z" />
<glyph unicode="h" horiz-adv-x="1288" d="M45 -139q0 147 70.5 433t70.5 433q0 135 37 336l62 332q102 115 274 114q127 0 166 -135q18 -66 18 -239q0 -43 13 -86q17 -5 51 -5h24q70 4 84 27l56 156q31 82 125 82q115 0 161 -19q78 -31 78 -127q0 -326 -47 -741q-68 -596 -188 -596q-176 0 -232 72q-25 33 -47 180 t-69 217q-6 10 -17 10q-18 0 -98 -94q0 -61 25.5 -182t25.5 -183q0 -74 -29 -116q-154 -57 -419 -58q-195 1 -195 189z" />
<glyph unicode="i" horiz-adv-x="956" d="M193 442l2 179q1 4 1 21.5t-1 49.5q0 6 -1 12q0 39 13 52q362 109 450 108q141 0 185 -43q31 -33 73 -192q47 -176 48 -248v-10l-2 -37q-86 -72 -324 -157t-350 -85q-20 0 -33 2q-57 10 -59 164zM225 1135q0 47 18.5 139t18.5 139q0 59 80 98q68 31 135 31q63 0 236 -26 q137 -20 147 -25q84 -27 84 -100v-150q0 -305 -264 -305q-106 0 -244 31q-182 41 -203 102q-8 25 -8 66z" />
<glyph unicode="j" horiz-adv-x="1271" d="M39 -82q0 59 33 96q4 143 100 199q74 45 227 45l60 -12q68 -182 139 -183q49 0 106.5 46.5t57.5 95.5q0 106 -19 151l-127 443q-23 12 -45 88q-20 68 -20 102q0 39 90 58q61 12 127 12q332 0 418 -88q31 -31 100 -365q68 -324 68 -399q0 -190 -92 -369 q-111 -213 -281 -213h-211q-135 0 -379 58q-276 66 -338 135q-14 88 -14 100zM438 1380v70q12 35 13 68q0 10 -2 26v19q0 29 90 43q53 4 108 10q12 1 31 1q62 0 194 -15q180 -20 205 -43q57 -51 58 -185q0 -113 -33 -162q-41 -59 -150 -59q-29 0 -86 6t-86 6 q-39 0 -114.5 -9t-114.5 -9q-23 0 -47 12q-66 100 -66 221z" />
<glyph unicode="k" horiz-adv-x="1560" d="M111 506q2 190 16 364q23 268 66 310q236 162 292 161q45 0 78 -73q16 -35 41 -148q23 -104 39 -129q41 8 96 107q72 127 129 176q109 92 283 92q47 0 143 -25l11 -41q0 -51 -54.5 -139t-54.5 -129q0 -45 232.5 -259t232.5 -275q0 -43 -19 -99q-119 -233 -215 -233 q-92 0 -276 100q-211 115 -285 131q27 -139 27 -194q0 -143 -221 -252q-190 -94 -348 -94q-106 0 -150 131l-49 215q4 4 4 28q0 45 -9 136.5t-9 138.5z" />
<glyph unicode="l" horiz-adv-x="1126" d="M76 449q12 129 41 161l-8 2l69 269q45 178 88 262l84 172q147 123 217 123q111 0 189 -43q98 -53 98 -154q0 -113 -66.5 -331t-66.5 -330l14 -64q59 -49 103 -49q23 0 49 10l178 -65q137 -53 137 -90q0 -211 -178 -363q-170 -143 -385 -143q-217 0 -387 121 q-182 128 -182 332q0 90 6 180z" />
<glyph unicode="m" horiz-adv-x="1970" d="M43 465q0 401 121 797l-8 4q12 66 141 237q283 35 391 35q197 0 299 -152q37 -55 139 -323q2 -29 9 -29q10 16 71 135q199 383 518 383q80 0 142.5 -71.5t62.5 -153.5q0 -23 -6 -43q27 -55 35 -141l8 -146l6 -6q35 -358 35 -551q-207 -154 -311 -153q-55 0 -140.5 94 t-115.5 94q-16 0 -29 -8q-80 -53 -106 -215q-14 -102 -48 -250q-49 -111 -187 -111h-15l-101 5q-92 90 -135 309q-45 238 -104 325l-68 13q-23 -39 -38 -143.5t-31 -141.5q-33 -72 -107 -72q-160 0 -278 60q-150 74 -150 219z" />
<glyph unicode="n" horiz-adv-x="1849" d="M45 -35v350q6 201 45 344q6 340 109 402l73 14q297 0 680 -270q133 -94 138 -94q29 0 90 88q88 129 123 164q88 90 180 90q88 0 249.5 -138.5t161.5 -224.5q0 -80 -156.5 -528.5t-189.5 -462.5q-57 -25 -162 -25q-221 0 -366 168q-63 72 -191 320q-94 182 -182 200 q2 -74 31 -223t29 -229q0 -186 -136 -186q-180 0 -319 43q-207 63 -207 198z" />
<glyph unicode="o" horiz-adv-x="1591" d="M53 958q4 121 146 254q135 133 258 148q33 4 188 33q123 23 189 22q780 0 780 -487q0 -326 -195 -553q-203 -242 -524 -242q-342 0 -594 240q-248 237 -248 555q-1 15 0 30zM471 813q0 -82 129 -160q117 -74 205 -73q72 0 143.5 54t71.5 124q0 61 -143 110 q-119 41 -199 41h-74q-66 -2 -72 -2q-25 -6 -59 -37z" />
<glyph unicode="p" horiz-adv-x="1437" d="M49 1139l19 80q133 137 303 137q23 0 75 -2q24 -1 42.5 -1t31.5 1q80 -113 121 -113q66 0 196 29.5t195 29.5q233 0 346 -79q133 -92 133 -318q0 -311 -165 -440q-68 -53 -310 -123q-166 -49 -166 -164q0 -31 13.5 -96.5t11.5 -99.5l-4 -89q-90 -76 -279 -75 q-174 0 -280 286q-154 455 -221 717q-62 211 -62 320zM586 610q0 -53 24 -110q70 2 189 39q143 45 143 90l-10 49q-20 98 -35 123q-31 49 -111 49q-82 0 -124 -29q-20 -14 -48 -96t-28 -115z" />
<glyph unicode="q" horiz-adv-x="1437" d="M53 774q0 252 191 494q199 256 444 264q336 35 404 35q137 0 237 -62q119 -74 119 -200q0 -100 -62 -215q-18 -35 -116 -179q-63 -92 -68 -141q29 -10 62 -12q23 -2 63 0q49 4 64 4q18 0 53 -15.5t35 -29.5q0 -514 -260 -514q-70 0 -194 92t-157 92l-143 -88 q-145 -88 -248 -88q-215 0 -327 182q-97 154 -97 381zM422 815q0 -96 35 -110l96 -27q-4 41 -10 96q-12 41 -43 129q31 102 88 103q31 0 88 -29q66 -33 90 -37q59 55 59 199q0 109 -63 108q-16 0 -57 -24q-283 -168 -283 -408z" />
<glyph unicode="r" horiz-adv-x="1685" d="M100 907q86 162 353 228q113 29 438 55q266 23 326 22q223 0 331 -73q133 -88 133 -301q0 -135 -204 -353q4 -27 108.5 -97.5t104.5 -131.5q0 -70 -76 -147q-29 -31 -154 -129q-94 -76 -127 -127l-78 -9q-59 0 -260.5 126t-281.5 126l-43 -24q-2 -31 -2 -170 q0 -86 -95 -138q-80 -45 -172 -45q-145 0 -198 156q-33 94 -33 277q0 274 -70 755zM594 563q0 -72 16 -149q25 -113 70 -113q74 0 179.5 110.5t105.5 184.5q0 35 -50 55q-39 16 -79 17q-242 -1 -242 -105z" />
<glyph unicode="s" horiz-adv-x="1464" d="M78 381q0 111 43 194q53 104 153 105q129 0 172 -25q18 -10 32 -56t52 -69q207 72 207 177q-238 29 -393 98q-236 104 -235 280q31 184 385 326q299 119 530 119h184q217 0 213 -152l-2 -61q-20 -18 -209 -68q-156 -41 -149 -106q55 -66 186 -109q160 -53 197 -82 q88 -66 88 -207q0 -307 -354 -452q-258 -106 -619 -107q-481 0 -481 195z" />
<glyph unicode="t" horiz-adv-x="1400" d="M49 897q0 154 172 203l291 53q88 29 84 29q664 0 836 -66l43 -55q-4 -188 -74 -248q-12 -10 -125 -49q-68 -23 -68 -123q0 -57 16.5 -172t16.5 -172v-147q0 -127 -55.5 -186.5t-181.5 -59.5q-133 0 -322 104q-209 117 -209 238q0 55 50 184t50 199q0 53 -28 86l-66 6 q-49 0 -141 -27.5t-141 -27.5q-72 0 -113 84q-35 67 -35 147z" />
<glyph unicode="u" horiz-adv-x="1439" d="M94 631q0 145 68 352q96 293 106 344q16 12 70 80q39 51 84 51q139 0 297 -47q205 -61 205 -166q0 -61 -29 -187t-27 -194l4 -112l54 -9q174 0 174 80q0 53 -36 153.5t-36 153.5q0 66 42 118t106 52q297 0 297 -202q0 -217 -56 -502q-70 -358 -174 -446q-68 -57 -215 -58 q-59 0 -314 46t-313 67q-172 63 -239.5 154.5t-67.5 271.5z" />
<glyph unicode="v" horiz-adv-x="1507" d="M57 858q0 86 88 188.5t172 102.5t193 -191q125 -217 201 -256q94 113 131 306q35 178 98 231q111 92 438 92q70 0 162 -31q49 -66 49 -174q0 -168 -106 -401q-137 -303 -160 -387q-12 -47 -12 -109q0 -39 7 -115.5t7 -115.5q0 -98 -231 -197q-199 -84 -322 -84 q-86 0 -246 213q-152 203 -164 301q-305 566 -305 627z" />
<glyph unicode="w" horiz-adv-x="1794" d="M37 1090q0 33 19.5 90t21.5 84q57 23 127 22q80 0 125 -147l45 -215l59 -50q61 53 84 186.5t76 172.5q104 74 412 74q123 0 188 -166q8 -18 94 -264l51 -11q31 41 66 158q37 131 59 172q47 84 121 84q268 0 268 -131q0 -133 -96 -578q-102 -471 -158 -524 q-102 -96 -428 -96q-113 0 -161 67q-20 29 -56 150q-29 102 -82 151q-6 0 -11 1q-84 0 -132 -82l-90 -164q-61 -90 -156 -90q-383 0 -383 467q0 106 -31.5 319.5t-31.5 319.5z" />
<glyph unicode="x" horiz-adv-x="1640" d="M92 1081q0 82 170 253t250 171q61 0 102 -123q74 -217 86 -241q72 -143 203 -185q88 72 141 230q57 170 103 219q88 98 293 98q49 0 79.5 -42t30.5 -93q0 -49 -107.5 -203.5t-107.5 -228.5q0 -23 111 -90q147 -92 203 -135q109 -88 108 -164q0 -109 -154.5 -281 t-261.5 -172q-76 0 -187.5 117t-141.5 117q-61 0 -117 -105l-104 -196q-76 -106 -183 -107q-111 0 -301 139q-197 143 -196 248q0 63 82 115l155 90q82 61 82 139q0 115 -88 189l-164 102q-86 57 -86 139z" />
<glyph unicode="y" horiz-adv-x="1394" d="M68 1309q0 111 90 186q84 74 196 74q113 0 156 -109l45 -217q29 -129 104 -160q37 63 79 207t75 207q59 111 127 111q131 0 340 -166q215 -172 215 -299q0 -72 -133 -152l-248 -139q-135 -78 -135 -123q0 -88 159.5 -282.5t159.5 -247.5q0 -133 -311 -246 q-264 -96 -430 -96q-55 0 -207 22q-68 104 -67 254q0 98 61.5 287.5t61.5 288.5q0 80 -89 184l-161 188q-88 113 -88 228z" />
<glyph unicode="z" horiz-adv-x="1433" d="M45 59q0 207 158 392q88 102 291 249q158 115 157 154q0 59 -47 129q-180 0 -205 -61q-4 -35 -16 -106t-59 -71q-121 0 -158 23q-51 31 -51 145q0 121 6 168q14 111 96 174q63 47 186 74l211 41q365 78 482 78q158 0 264 -217q90 -184 90 -361q0 -57 -182 -165l-338 -199 q-182 -113 -182 -180q0 -37 118 -72q98 -29 154 -29q41 0 41 31q0 12 -7 39t-7 39q0 205 170 205q94 0 120 -88l39 -162q55 -205 56 -277q0 -174 -426 -174q-371 0 -549 21q-412 46 -412 200z" />
<glyph unicode="&#xa3;" horiz-adv-x="2048" />
<glyph unicode="&#xad;" d="M178 637q0 59 25 104q16 31 252 90q225 57 284 58q129 0 208 -85t79 -214q0 -88 -51 -143.5t-139 -55.5q-27 0 -80.5 9.5t-79.5 9.5q-49 0 -144.5 -22.5t-144.5 -22.5q-154 0 -166 98q-14 14 -28 84q-15 61 -15 90z" />
<glyph unicode="&#x2000;" horiz-adv-x="819" />
<glyph unicode="&#x2001;" horiz-adv-x="1638" />
<glyph unicode="&#x2002;" horiz-adv-x="819" />
<glyph unicode="&#x2003;" horiz-adv-x="1638" />
<glyph unicode="&#x2004;" horiz-adv-x="544" />
<glyph unicode="&#x2005;" horiz-adv-x="409" />
<glyph unicode="&#x2006;" horiz-adv-x="272" />
<glyph unicode="&#x2007;" horiz-adv-x="272" />
<glyph unicode="&#x2008;" horiz-adv-x="204" />
<glyph unicode="&#x2009;" horiz-adv-x="327" />
<glyph unicode="&#x200a;" horiz-adv-x="90" />
<glyph unicode="&#x2010;" d="M178 637q0 59 25 104q16 31 252 90q225 57 284 58q129 0 208 -85t79 -214q0 -88 -51 -143.5t-139 -55.5q-27 0 -80.5 9.5t-79.5 9.5q-49 0 -144.5 -22.5t-144.5 -22.5q-154 0 -166 98q-14 14 -28 84q-15 61 -15 90z" />
<glyph unicode="&#x2011;" d="M178 637q0 59 25 104q16 31 252 90q225 57 284 58q129 0 208 -85t79 -214q0 -88 -51 -143.5t-139 -55.5q-27 0 -80.5 9.5t-79.5 9.5q-49 0 -144.5 -22.5t-144.5 -22.5q-154 0 -166 98q-14 14 -28 84q-15 61 -15 90z" />
<glyph unicode="&#x2012;" d="M178 637q0 59 25 104q16 31 252 90q225 57 284 58q129 0 208 -85t79 -214q0 -88 -51 -143.5t-139 -55.5q-27 0 -80.5 9.5t-79.5 9.5q-49 0 -144.5 -22.5t-144.5 -22.5q-154 0 -166 98q-14 14 -28 84q-15 61 -15 90z" />
<glyph unicode="&#x2013;" horiz-adv-x="1024" d="M205 512v205h614v-205h-614z" />
<glyph unicode="&#x2014;" horiz-adv-x="2048" d="M205 512v205h1638v-205h-1638z" />
<glyph unicode="&#x2019;" horiz-adv-x="692" d="M174 1477q47 139 266 139q301 0 301 -256q0 -143 -106.5 -253t-247.5 -110q-98 0 -98 50q0 39 43 113.5t43 107.5q0 31 -43 49q-74 31 -88 41q-52 39 -70 119z" />
<glyph unicode="&#x201c;" horiz-adv-x="987" d="M78 1393q0 16 58.5 79.5t76.5 69.5q27 8 90 8q86 0 146.5 -63.5t60.5 -149.5q0 -139 -51 -264q-66 -162 -185 -162q-37 0 -67 19q-39 23 -39 55q0 29 26.5 79t26.5 79t-71.5 127t-71.5 123zM514 1432q0 41 47 100t88 59q197 -39 285 -100q123 -86 123 -258 q0 -160 -88 -283q-96 -137 -250 -137q-68 0 -110 42t-42 110q0 63 35 151q49 121 53 146q-141 127 -141 170z" />
<glyph unicode="&#x201d;" horiz-adv-x="987" d="M78 1393q0 16 58.5 79.5t76.5 69.5q27 8 90 8q86 0 146.5 -63.5t60.5 -149.5q0 -139 -51 -264q-66 -162 -185 -162q-37 0 -67 19q-39 23 -39 55q0 29 26.5 79t26.5 79t-71.5 127t-71.5 123zM514 1432q0 41 47 100t88 59q197 -39 285 -100q123 -86 123 -258 q0 -160 -88 -283q-96 -137 -250 -137q-68 0 -110 42t-42 110q0 63 35 151q49 121 53 146q-141 127 -141 170z" />
<glyph unicode="&#x2026;" horiz-adv-x="2113" d="M1612 -129q0 109 65 152q10 6 158 63q47 18 53 18q4 0 58 -19l157 -56q61 -39 62 -150q0 -84 -47 -147q-51 -70 -134 -70q-123 0 -231 45q-141 60 -141 164zM908 -129q0 109 65 152q10 6 158 63q47 18 53 18q4 0 58 -19l157 -56q61 -39 62 -150q0 -84 -47 -147 q-51 -70 -134 -70q-123 0 -231 45q-141 60 -141 164zM203 -129q0 109 65 152q10 6 158 63q47 18 53 18q4 0 58 -19l157 -56q61 -39 62 -150q0 -84 -47 -147q-51 -70 -134 -70q-123 0 -231 45q-141 60 -141 164z" />
<glyph unicode="&#x202f;" horiz-adv-x="327" />
<glyph unicode="&#x205f;" horiz-adv-x="409" />
<glyph unicode="&#x2122;" horiz-adv-x="3371" d="M1444 465q0 401 121 797l-8 4q12 66 141 237q283 35 391 35q197 0 299 -152q37 -55 139 -323q2 -29 9 -29q10 16 71 135q199 383 518 383q80 0 142.5 -71.5t62.5 -153.5q0 -23 -6 -43q27 -55 35 -141l8 -146l6 -6q35 -358 35 -551q-207 -154 -311 -153q-55 0 -140.5 94 t-115.5 94q-16 0 -29 -8q-80 -53 -106 -215q-14 -102 -48 -250q-49 -111 -187 -111h-15l-101 5q-92 90 -135 309q-45 238 -104 325l-68 13q-23 -39 -38 -143.5t-31 -141.5q-33 -72 -107 -72q-160 0 -278 60q-150 74 -150 219zM49 897q0 154 172 203l291 53q88 29 84 29 q664 0 836 -66l43 -55q-4 -188 -74 -248q-12 -10 -125 -49q-68 -23 -68 -123q0 -57 16.5 -172t16.5 -172v-147q0 -127 -55.5 -186.5t-181.5 -59.5q-133 0 -322 104q-209 117 -209 238q0 55 50 184t50 199q0 53 -28 86l-66 6q-49 0 -141 -27.5t-141 -27.5q-72 0 -113 84 q-35 67 -35 147z" />
<glyph unicode="&#xe000;" horiz-adv-x="1505" d="M0 1505h1505v-1505h-1505v1505z" />
<glyph unicode="&#xfb01;" horiz-adv-x="2213" d="M1450 442l2 179q1 4 1 21.5t-1 49.5q0 6 -1 12q0 39 13 52q362 109 450 108q141 0 185 -43q31 -33 73 -192q47 -176 48 -248v-10l-2 -37q-86 -72 -324 -157t-350 -85q-20 0 -33 2q-57 10 -59 164zM1482 1135q0 47 18.5 139t18.5 139q0 59 80 98q68 31 135 31 q63 0 236 -26q137 -20 147 -25q84 -27 84 -100v-150q0 -305 -264 -305q-106 0 -244 31q-182 41 -203 102q-8 25 -8 66zM225 1483l37 92q74 33 178 33q258 0 432 -66q246 -92 246 -299q0 -156 -39 -192q-10 -10 -98 -26.5t-139 -76.5q-12 -14 -13 -49q0 -45 21 -113 q23 -76 53.5 -97t81.5 -21q35 0 105.5 14t107.5 14q53 0 96 -34l17 -70q0 -117 -60 -156q-31 -20 -134 -38.5t-150 -63.5q4 -37 32 -131q25 -82 25 -131q0 -109 -233 -269q-221 -152 -340 -151l-68 12q-45 94 -92 721q-43 561 -43 782q0 53 -11.5 158t-11.5 158z" />
<glyph unicode="&#xfb02;" horiz-adv-x="2383" d="M1333 449q12 129 41 161l-8 2l69 269q45 178 88 262l84 172q147 123 217 123q111 0 189 -43q98 -53 98 -154q0 -113 -66.5 -331t-66.5 -330l14 -64q59 -49 103 -49q23 0 49 10l178 -65q137 -53 137 -90q0 -211 -178 -363q-170 -143 -385 -143q-217 0 -387 121 q-182 128 -182 332q0 90 6 180zM225 1483l37 92q74 33 178 33q258 0 432 -66q246 -92 246 -299q0 -156 -39 -192q-10 -10 -98 -26.5t-139 -76.5q-12 -14 -13 -49q0 -45 21 -113q23 -76 53.5 -97t81.5 -21q35 0 105.5 14t107.5 14q53 0 96 -34l17 -70q0 -117 -60 -156 q-31 -20 -134 -38.5t-150 -63.5q4 -37 32 -131q25 -82 25 -131q0 -109 -233 -269q-221 -152 -340 -151l-68 12q-45 94 -92 721q-43 561 -43 782q0 53 -11.5 158t-11.5 158z" />
<glyph unicode="&#xfb03;" horiz-adv-x="3471" d="M2708 442l2 179q1 4 1 21.5t-1 49.5q0 6 -1 12q0 39 13 52q362 109 450 108q141 0 185 -43q31 -33 73 -192q47 -176 48 -248v-10l-2 -37q-86 -72 -324 -157t-350 -85q-20 0 -33 2q-57 10 -59 164zM2740 1135q0 47 18.5 139t18.5 139q0 59 80 98q68 31 135 31 q63 0 236 -26q137 -20 147 -25q84 -27 84 -100v-150q0 -305 -264 -305q-106 0 -244 31q-182 41 -203 102q-8 25 -8 66zM1482 1483l37 92q74 33 178 33q258 0 432 -66q246 -92 246 -299q0 -156 -39 -192q-10 -10 -98 -26.5t-139 -76.5q-12 -14 -13 -49q0 -45 21 -113 q23 -76 53.5 -97t81.5 -21q35 0 105.5 14t107.5 14q53 0 96 -34l17 -70q0 -117 -60 -156q-31 -20 -134 -38.5t-150 -63.5q4 -37 32 -131q25 -82 25 -131q0 -109 -233 -269q-221 -152 -340 -151l-68 12q-45 94 -92 721q-43 561 -43 782q0 53 -11.5 158t-11.5 158zM225 1483 l37 92q74 33 178 33q258 0 432 -66q246 -92 246 -299q0 -156 -39 -192q-10 -10 -98 -26.5t-139 -76.5q-12 -14 -13 -49q0 -45 21 -113q23 -76 53.5 -97t81.5 -21q35 0 105.5 14t107.5 14q53 0 96 -34l17 -70q0 -117 -60 -156q-31 -20 -134 -38.5t-150 -63.5q4 -37 32 -131 q25 -82 25 -131q0 -109 -233 -269q-221 -152 -340 -151l-68 12q-45 94 -92 721q-43 561 -43 782q0 53 -11.5 158t-11.5 158z" />
<glyph unicode="&#xfb04;" horiz-adv-x="3641" d="M2591 449q12 129 41 161l-8 2l69 269q45 178 88 262l84 172q147 123 217 123q111 0 189 -43q98 -53 98 -154q0 -113 -66.5 -331t-66.5 -330l14 -64q59 -49 103 -49q23 0 49 10l178 -65q137 -53 137 -90q0 -211 -178 -363q-170 -143 -385 -143q-217 0 -387 121 q-182 128 -182 332q0 90 6 180zM1482 1483l37 92q74 33 178 33q258 0 432 -66q246 -92 246 -299q0 -156 -39 -192q-10 -10 -98 -26.5t-139 -76.5q-12 -14 -13 -49q0 -45 21 -113q23 -76 53.5 -97t81.5 -21q35 0 105.5 14t107.5 14q53 0 96 -34l17 -70q0 -117 -60 -156 q-31 -20 -134 -38.5t-150 -63.5q4 -37 32 -131q25 -82 25 -131q0 -109 -233 -269q-221 -152 -340 -151l-68 12q-45 94 -92 721q-43 561 -43 782q0 53 -11.5 158t-11.5 158zM225 1483l37 92q74 33 178 33q258 0 432 -66q246 -92 246 -299q0 -156 -39 -192q-10 -10 -98 -26.5 t-139 -76.5q-12 -14 -13 -49q0 -45 21 -113q23 -76 53.5 -97t81.5 -21q35 0 105.5 14t107.5 14q53 0 96 -34l17 -70q0 -117 -60 -156q-31 -20 -134 -38.5t-150 -63.5q4 -37 32 -131q25 -82 25 -131q0 -109 -233 -269q-221 -152 -340 -151l-68 12q-45 94 -92 721 q-43 561 -43 782q0 53 -11.5 158t-11.5 158z" />
</font>
</defs>
</svg>
